<svg viewBox="0 0 2081 400" xmlns="http://www.w3.org/2000/svg"><g><g><g><g><g><line x1="30" y1="355.2591979329156" x2="25" y2="355.2591979329156" style="visibility: inherit;" fill="rgb(0, 0, 0)" stroke="rgb(204, 204, 204)" stroke-width="1px"></line><line x1="30" y1="325.4438969598897" x2="25" y2="325.4438969598897" style="visibility: inherit;" fill="rgb(0, 0, 0)" stroke="rgb(204, 204, 204)" stroke-width="1px"></line><line x1="30" y1="295.6285959868638" x2="25" y2="295.6285959868638" style="visibility: inherit;" fill="rgb(0, 0, 0)" stroke="rgb(204, 204, 204)" stroke-width="1px"></line><line x1="30" y1="265.81329501383783" x2="25" y2="265.81329501383783" style="visibility: inherit;" fill="rgb(0, 0, 0)" stroke="rgb(204, 204, 204)" stroke-width="1px"></line><line x1="30" y1="235.99799404081196" x2="25" y2="235.99799404081196" style="visibility: inherit;" fill="rgb(0, 0, 0)" stroke="rgb(204, 204, 204)" stroke-width="1px"></line><line x1="30" y1="206.182693067786" x2="25" y2="206.182693067786" style="visibility: inherit;" fill="rgb(0, 0, 0)" stroke="rgb(204, 204, 204)" stroke-width="1px"></line><line x1="30" y1="176.3673920947601" x2="25" y2="176.3673920947601" style="visibility: inherit;" fill="rgb(0, 0, 0)" stroke="rgb(204, 204, 204)" stroke-width="1px"></line><line x1="30" y1="146.55209112173418" x2="25" y2="146.55209112173418" style="visibility: inherit;" fill="rgb(0, 0, 0)" stroke="rgb(204, 204, 204)" stroke-width="1px"></line><line x1="30" y1="116.73679014870827" x2="25" y2="116.73679014870827" style="visibility: inherit;" fill="rgb(0, 0, 0)" stroke="rgb(204, 204, 204)" stroke-width="1px"></line><line x1="30" y1="86.92148917568234" x2="25" y2="86.92148917568234" style="visibility: inherit;" fill="rgb(0, 0, 0)" stroke="rgb(204, 204, 204)" stroke-width="1px"></line><line x1="30" y1="57.106188202656405" x2="25" y2="57.106188202656405" style="visibility: inherit;" fill="rgb(0, 0, 0)" stroke="rgb(204, 204, 204)" stroke-width="1px"></line><line x1="30" y1="27.290887229630524" x2="25" y2="27.290887229630524" style="visibility: inherit;" fill="rgb(0, 0, 0)" stroke="rgb(204, 204, 204)" stroke-width="1px"></line></g><g transform="translate(20, 0)"><text x="0" y="355.2591979329156" dx="0em" dy="0.3em" style="text-anchor: end; visibility: inherit; font-family: Roboto, sans-serif; font-size: 12px; font-weight: 200;" fill="rgb(33, 33, 33)" stroke="none" stroke-width="1px">4</text><text x="0" y="325.4438969598897" dx="0em" dy="0.3em" style="text-anchor: end; visibility: inherit; font-family: Roboto, sans-serif; font-size: 12px; font-weight: 200;" fill="rgb(33, 33, 33)" stroke="none" stroke-width="1px">5</text><text x="0" y="295.6285959868638" dx="0em" dy="0.3em" style="text-anchor: end; visibility: inherit; font-family: Roboto, sans-serif; font-size: 12px; font-weight: 200;" fill="rgb(33, 33, 33)" stroke="none" stroke-width="1px">6</text><text x="0" y="265.81329501383783" dx="0em" dy="0.3em" style="text-anchor: end; visibility: inherit; font-family: Roboto, sans-serif; font-size: 12px; font-weight: 200;" fill="rgb(33, 33, 33)" stroke="none" stroke-width="1px">7</text><text x="0" y="235.99799404081196" dx="0em" dy="0.3em" style="text-anchor: end; visibility: inherit; font-family: Roboto, sans-serif; font-size: 12px; font-weight: 200;" fill="rgb(33, 33, 33)" stroke="none" stroke-width="1px">8</text><text x="0" y="206.182693067786" dx="0em" dy="0.3em" style="text-anchor: end; visibility: inherit; font-family: Roboto, sans-serif; font-size: 12px; font-weight: 200;" fill="rgb(33, 33, 33)" stroke="none" stroke-width="1px">9</text><text x="0" y="176.3673920947601" dx="0em" dy="0.3em" style="text-anchor: end; visibility: inherit; font-family: Roboto, sans-serif; font-size: 12px; font-weight: 200;" fill="rgb(33, 33, 33)" stroke="none" stroke-width="1px">10</text><text x="0" y="146.55209112173418" dx="0em" dy="0.3em" style="text-anchor: end; visibility: inherit; font-family: Roboto, sans-serif; font-size: 12px; font-weight: 200;" fill="rgb(33, 33, 33)" stroke="none" stroke-width="1px">11</text><text x="0" y="116.73679014870827" dx="0em" dy="0.3em" style="text-anchor: end; visibility: inherit; font-family: Roboto, sans-serif; font-size: 12px; font-weight: 200;" fill="rgb(33, 33, 33)" stroke="none" stroke-width="1px">12</text><text x="0" y="86.92148917568234" dx="0em" dy="0.3em" style="text-anchor: end; visibility: inherit; font-family: Roboto, sans-serif; font-size: 12px; font-weight: 200;" fill="rgb(33, 33, 33)" stroke="none" stroke-width="1px">13</text><text x="0" y="57.106188202656405" dx="0em" dy="0.3em" style="text-anchor: end; visibility: inherit; font-family: Roboto, sans-serif; font-size: 12px; font-weight: 200;" fill="rgb(33, 33, 33)" stroke="none" stroke-width="1px">14</text><text x="0" y="27.290887229630524" dx="0em" dy="0.3em" style="text-anchor: end; visibility: inherit; font-family: Roboto, sans-serif; font-size: 12px; font-weight: 200;" fill="rgb(33, 33, 33)" stroke="none" stroke-width="1px">15</text></g><line x1="30" y1="0" x2="30" y2="377" fill="rgb(0, 0, 0)" stroke="rgb(204, 204, 204)" stroke-width="1px"></line></g></g><g transform="translate(30, 0)" clip-path="url(#clip_0)"><clipPath id="clip_0"><rect width="2051" height="377"></rect></clipPath><g><g><g><line x1="45.042077533552316" y1="0" x2="45.042077533552316" y2="377" fill="rgb(0, 0, 0)" stroke="rgb(66, 66, 66)" stroke-width="1px" opacity="0.25"></line><line x1="220.76386573951822" y1="0" x2="220.76386573951822" y2="377" fill="rgb(0, 0, 0)" stroke="rgb(66, 66, 66)" stroke-width="1px" opacity="0.25"></line><line x1="396.48565394548416" y1="0" x2="396.48565394548416" y2="377" fill="rgb(0, 0, 0)" stroke="rgb(66, 66, 66)" stroke-width="1px" opacity="0.25"></line><line x1="572.20744215145" y1="0" x2="572.20744215145" y2="377" fill="rgb(0, 0, 0)" stroke="rgb(66, 66, 66)" stroke-width="1px" opacity="0.25"></line><line x1="747.9292303574159" y1="0" x2="747.9292303574159" y2="377" fill="rgb(0, 0, 0)" stroke="rgb(66, 66, 66)" stroke-width="1px" opacity="0.25"></line><line x1="923.651018563382" y1="0" x2="923.651018563382" y2="377" fill="rgb(0, 0, 0)" stroke="rgb(66, 66, 66)" stroke-width="1px" opacity="0.25"></line><line x1="1099.3728067693478" y1="0" x2="1099.3728067693478" y2="377" fill="rgb(0, 0, 0)" stroke="rgb(66, 66, 66)" stroke-width="1px" opacity="0.25"></line><line x1="1275.0945949753138" y1="0" x2="1275.0945949753138" y2="377" fill="rgb(0, 0, 0)" stroke="rgb(66, 66, 66)" stroke-width="1px" opacity="0.25"></line><line x1="1450.8163831812797" y1="0" x2="1450.8163831812797" y2="377" fill="rgb(0, 0, 0)" stroke="rgb(66, 66, 66)" stroke-width="1px" opacity="0.25"></line><line x1="1626.5381713872457" y1="0" x2="1626.5381713872457" y2="377" fill="rgb(0, 0, 0)" stroke="rgb(66, 66, 66)" stroke-width="1px" opacity="0.25"></line><line x1="1802.2599595932113" y1="0" x2="1802.2599595932113" y2="377" fill="rgb(0, 0, 0)" stroke="rgb(66, 66, 66)" stroke-width="1px" opacity="0.25"></line><line x1="1977.9817477991774" y1="0" x2="1977.9817477991774" y2="377" fill="rgb(0, 0, 0)" stroke="rgb(66, 66, 66)" stroke-width="1px" opacity="0.25"></line></g><g><line x1="0" y1="355.2591979329156" x2="2051" y2="355.2591979329156" fill="rgb(0, 0, 0)" stroke="rgb(66, 66, 66)" stroke-width="1px" opacity="0.25"></line><line x1="0" y1="325.4438969598897" x2="2051" y2="325.4438969598897" fill="rgb(0, 0, 0)" stroke="rgb(66, 66, 66)" stroke-width="1px" opacity="0.25"></line><line x1="0" y1="295.6285959868638" x2="2051" y2="295.6285959868638" fill="rgb(0, 0, 0)" stroke="rgb(66, 66, 66)" stroke-width="1px" opacity="0.25"></line><line x1="0" y1="265.81329501383783" x2="2051" y2="265.81329501383783" fill="rgb(0, 0, 0)" stroke="rgb(66, 66, 66)" stroke-width="1px" opacity="0.25"></line><line x1="0" y1="235.99799404081196" x2="2051" y2="235.99799404081196" fill="rgb(0, 0, 0)" stroke="rgb(66, 66, 66)" stroke-width="1px" opacity="0.25"></line><line x1="0" y1="206.182693067786" x2="2051" y2="206.182693067786" fill="rgb(0, 0, 0)" stroke="rgb(66, 66, 66)" stroke-width="1px" opacity="0.25"></line><line x1="0" y1="176.3673920947601" x2="2051" y2="176.3673920947601" fill="rgb(0, 0, 0)" stroke="rgb(66, 66, 66)" stroke-width="1px" opacity="0.25"></line><line x1="0" y1="146.55209112173418" x2="2051" y2="146.55209112173418" fill="rgb(0, 0, 0)" stroke="rgb(66, 66, 66)" stroke-width="1px" opacity="0.25"></line><line x1="0" y1="116.73679014870827" x2="2051" y2="116.73679014870827" fill="rgb(0, 0, 0)" stroke="rgb(66, 66, 66)" stroke-width="1px" opacity="0.25"></line><line x1="0" y1="86.92148917568234" x2="2051" y2="86.92148917568234" fill="rgb(0, 0, 0)" stroke="rgb(66, 66, 66)" stroke-width="1px" opacity="0.25"></line><line x1="0" y1="57.106188202656405" x2="2051" y2="57.106188202656405" fill="rgb(0, 0, 0)" stroke="rgb(66, 66, 66)" stroke-width="1px" opacity="0.25"></line><line x1="0" y1="27.290887229630524" x2="2051" y2="27.290887229630524" fill="rgb(0, 0, 0)" stroke="rgb(66, 66, 66)" stroke-width="1px" opacity="0.25"></line></g></g></g><g><g><line x1="0" y1="474.5204018250193" x2="2051" y2="474.5204018250193" fill="rgb(0, 0, 0)" stroke="rgb(153, 153, 153)" stroke-width="1.5px"></line></g></g><g><g><line x1="572.20744215145" y1="0" x2="572.20744215145" y2="377" fill="rgb(0, 0, 0)" stroke="rgb(153, 153, 153)" stroke-width="1.5px"></line></g></g><g><g><g><g><g><path stroke="rgb(255, 112, 67)" stroke-width="2px" d="M598.565710382345,412.42117403697273L600.3229282644046,341.18345104727894L602.0801461464642,291.6765094702965L603.8373640285239,298.31844442833506L605.5945819105835,289.3615772169153L607.3517997926432,255.37121820205758L609.1090176747028,270.8067561439984L610.8662355567626,202.58498520902765L612.6234534388223,174.57039832813027L614.3806713208818,221.37743840858488L616.1378892029416,215.76360272902292L617.8951070850012,185.68832250357255L619.6523249670607,189.40367959831414L621.4095428491205,227.2712024761194L623.1667607311801,195.59228593898658L624.9239786132399,195.90990186787334L626.6811964952994,225.11518036790673L628.4384143773591,207.07037617193043L630.1956322594189,188.7084498449339L631.9528501414784,158.52203363757073L633.710068023538,167.57479209580745L635.4672859055978,174.0351923412412L637.2245037876575,150.01755902713205L638.9817216697171,171.63662952048332L640.7389395517768,193.58191506549127L642.4961574338364,156.347847705545L644.253375315896,127.07423294871404L646.0105931979557,115.2626893176191L647.7678110800153,114.72489536204507L649.5250289620751,166.3406270643504L651.2822468441346,225.55218296339805L653.0394647261944,220.91365439358967L654.7966826082541,187.2673833119172L656.5539004903136,130.90907382322126L658.3111183723734,146.2528481168203L660.068336254433,138.13474680856868L661.8255541364927,163.3764938081394L663.5827720185523,163.06987919945266L665.339989900612,151.87802906965314L667.0972077826717,165.4702366775874L668.8544256647313,168.74282574061795L670.6116435467909,182.05181864755312L672.3688614288507,184.79684632018476L674.1260793109103,198.06545424362682L675.8832971929698,206.72600654325115L677.6405150750296,219.23043278474856L679.3977329570893,188.48439665036767L681.1549508391489,160.1796210969103L682.9121687212086,137.96406489673993L684.6693866032682,105.1731114733215L686.426604485328,127.22672187070512L688.1838223673875,156.15899659403678L689.9410402494472,165.16419926117058L691.6982581315069,105.62419650527652L693.4554760135665,184.68695966774706L695.2126938956262,165.26545089816122L696.9699117776859,161.6757816010391L698.7271296597455,138.7929962037635L700.4843475418052,98.67726584638181L702.2415654238648,134.37446962276576L703.9987833059245,85.60969753811142L705.7560011879841,108.55079045765228L707.5132190700438,60.95226436711375L709.2704369521035,89.02726423189678L711.0276548341632,90.36313036627331L712.7848727162227,120.85837823851469L714.5420905982825,113.25919380616742L716.2993084803421,97.32774310877197L718.0565263624017,93.05849997378691L719.8137442444614,101.72958985286036L721.5709621265211,157.1926653972515L723.3281800085807,168.99253893835524L725.0853978906404,194.91497033455354L726.8426157727,184.42920904372428L728.5998336547598,223.7545974883113L730.3570515368193,225.99193591797876L732.114269418879,199.78740708286244L733.8714873009387,180.63376462984598L735.6287051829983,157.5724544150894L737.385923065058,93.68364577807158L739.1431409471177,88.35234928908045L740.9003588291773,94.3783284313941L742.657576711237,98.02800270000678L744.4147945932966,93.4045792456645L746.1720124753563,126.94404997467903L747.9292303574159,150.67180977885278L749.6864482394756,130.99621086142741L751.4436661215353,104.92982627860167L753.200884003595,119.24208720658409L754.9581018856545,66.14965405170054L756.7153197677143,41.14501203699543L758.4725376497739,63.99127193102579L760.2297555318335,26.79175352366008L761.9869734138932,45.53457158566343L763.7441912959529,87.13991692672563L765.5014091780126,59.90901400927013L767.2586270600722,81.60528293736141L769.0158449421318,104.51620709453594L770.7730628241916,158.03020334497268L772.5302807062511,181.81921381649403L774.2874985883108,171.58021944153919L776.0447164703705,135.27533115025082L777.8019343524302,120.335300003945L779.5591522344898,90.43860707314563L781.3163701165495,65.1658025322799L783.0735879986091,70.56818768318303L784.8308058806688,128.9889781716702L786.5880237627284,160.80870152399527L788.3452416447881,161.88896326846515L790.1024595268478,110.51248872386144L791.8596774089074,47.39751472747488L793.6168952909671,84.99402970553928L795.3741131730268,114.8027900506076L797.1313310550863,113.20075626079289L798.8885489371461,89.08113242030522L800.6457668192057,85.40316492807824L802.4029847012654,95.11235953979143L804.160202583325,154.32214062537238L805.9174204653847,161.89653425763723L807.6746383474444,110.4362443900227L809.431856229504,83.10321927507992L811.1890741115636,62.959533495134096L812.9462919936234,124.63869048667796L814.703509875683,71.6706229677371L816.4607277577426,57.99588100136885L818.2179456398023,83.45139873356503L819.975163521862,104.33812128924659L821.7323814039216,71.97415351101075L823.4895992859813,118.72896716771713L825.2468171680409,117.53489491515161L827.0040350501007,109.8336522685087L828.7612529321602,126.65312937245278L830.5184708142199,134.74379521219305L832.2756886962796,109.43261991486098L834.0329065783392,119.52677502348071L835.7901244603989,96.10042983182176L837.5473423424586,96.03146373725349L839.3045602245182,112.86375831565039L841.0617781065779,74.47164347848444L842.8189959886375,27.609599365878864L844.5762138706972,56.77303405612125L846.3334317527568,83.67656758787516L848.0906496348165,112.4392594842342L849.8478675168762,121.07918533896391L851.6050853989359,100.1359684060445L853.3623032809954,105.20922633919226L855.1195211630552,143.66829112135824L856.8767390451148,125.45104401225237L858.6339569271744,118.19745063934795L860.3911748092341,127.60667607518484L862.1483926912938,129.1308838106005L863.9056105733534,142.86995499403787L865.6628284554131,148.1848459972748L867.4200463374727,143.64445180239085L869.1772642195325,126.38207144339162L870.934482101592,168.50548268111285L872.6916999836517,175.73200509750347L874.4489178657115,154.07886752149352L876.206135747771,151.84413456328417L877.9633536298307,128.42438563931339L879.7205715118904,115.93473913319298L881.47778939395,67.68347437964304L883.2350072760097,89.01058430010465L884.9922251580693,87.3852520451817L886.749443040129,67.73511318086776L888.5066609221886,96.00256185849605L890.2638788042483,112.21006232639606L892.021096686308,77.91716320317008L893.7783145683677,70.99157104135433L895.5355324504272,119.13424676669892L897.292750332487,103.95322770691658L899.0499682145467,89.12888713683613L900.8071860966063,96.35224724528375L902.5644039786661,90.8217961904049L904.3216218607257,85.09681895839607L906.0788397427854,100.56580301269724L907.836057624845,120.74191851812145L909.5932755069047,79.99934584623239L911.3504933889644,63.283438128062315L913.107711271024,67.48398244312055L914.8649291530836,65.64090506491097L916.6221470351434,139.09343103035124L918.379364917203,90.18379956103486L920.1365827992626,52.31270805747045L921.8938006813223,106.93305528090848L923.651018563382,140.1390540427939L925.4082364454416,120.83623828647484L927.1654543275013,137.06846542677226L928.9226722095609,73.90187058463253L930.6798900916207,74.98523999815156L932.4371079736802,87.31863454986734L934.1943258557399,114.15975019992742L935.9515437377996,83.22269110128275L937.7087616198592,97.25804337958239L939.4659795019189,97.53711987795265L941.2231973839786,142.61978853127877L942.9804152660382,174.28626651365622L944.7376331480979,189.5436133073635L946.4948510301575,128.7361669754736L948.2520689122172,83.5821347453437L950.0092867942768,119.6142296942858L951.7665046763365,142.2011100102015L953.5237225583962,116.48606007950139L955.2809404404559,78.67344404543658L957.0381583225154,55.0953984426822L958.7953762045752,83.43222447077696L960.5525940866348,87.54070146185487L962.3098119686944,124.04121892033581L964.0670298507541,77.12310060556605L965.8242477328138,100.76525988439911L967.5814656148735,117.04125698401002L969.3386834969331,140.2172008416802L971.0959013789927,114.42501734683313L972.8531192610525,100.9956307823844L974.610337143112,132.80932169246705L976.3675550251717,117.84676194145923L978.1247729072314,142.4209594177606L979.8819907892911,121.99369542224055L981.6392086713507,119.64667313380507L983.3964265534104,130.13534990875073L985.15364443547,140.00045732788973L986.9108623175297,127.69919782098879L988.6680801995893,134.72355992735396L990.425298081649,121.79448149439563L992.1825159637087,120.89796347410247L993.9397338457683,99.31416525901179L995.696951727828,89.10319212885057L997.4541696098877,129.43201449652207L999.2113874919472,112.48091924227987L1000.968605374007,127.51034682304622L1002.7258232560666,125.39651334491367L1004.4830411381262,131.86873371141456L1006.2402590201859,90.83178190956532L1007.9974769022456,87.48529114704242L1009.7546947843053,106.55881532727619L1011.5119126663649,132.8687935880064L1013.2691305484245,166.6266815735028L1015.0263484304843,115.54698971993673L1016.7835663125438,93.75737077045102L1018.5407841946035,107.35680867528814L1020.2980020766632,94.10479654938143L1022.0552199587229,90.30183819328127L1023.8124378407825,58.72026082617141L1025.569655722842,33.45535307353202L1027.326873604902,66.08408811669031L1029.0840914869616,23.461138774776316L1030.8413093690212,68.88020944325959L1032.5985272510807,107.67423052388425L1034.3557451331403,80.97110483809921L1036.1129630152002,128.90861399586876L1037.8701808972598,99.14314593503147L1039.6273987793195,96.43168125556906L1041.3846166613791,115.11960398531079L1043.1418345434388,146.145786595308L1044.8990524254984,103.42141417113841L1046.656270307558,121.07810865437922L1048.4134881896177,95.36663032880865L1050.1707060716774,108.50708361162066L1051.927923953737,95.46764376244313L1053.6851418357967,114.15996000124024L1055.4423597178566,118.77229512480628L1057.199577599916,74.49373671815327L1058.9567954819756,73.75755917754297L1060.7140133640353,88.67163572088111L1062.471231246095,96.55979729835474L1064.2284491281548,77.33944421656264L1065.9856670102145,76.54509227041666L1067.742884892274,81.12814486598863L1069.5001027743335,129.73523184608965L1071.2573206563932,101.42423136009872L1073.014538538453,93.70799637939783L1074.7717564205127,147.2883472299788L1076.5289743025724,126.75198236865432L1078.286192184632,173.72706864235036L1080.0434100666916,187.05106201464275L1081.800627948751,159.8436264138146L1083.557845830811,197.76391876627451L1085.3150637128706,150.963463146486L1087.0722815949302,114.39366998106932L1088.82949947699,135.3144511009933L1090.5867173590495,156.6396999389329L1092.3439352411094,110.9175214082858L1094.1011531231688,150.21746913391357L1095.8583710052285,178.39273877462796L1097.6155888872881,197.1240513480234L1099.3728067693478,154.648619743766L1101.1300246514077,100.0254848651217L1102.8872425334673,148.172671927696L1104.644460415527,163.18890311903306L1106.4016782975864,131.02251286393337L1108.158896179646,81.54841445277935L1109.9161140617057,112.38958278833803L1111.6733319437656,87.2541705962927L1113.4305498258252,107.37627897232005L1115.1877677078849,185.22163003309976L1116.9449855899445,153.80995761819148L1118.702203472004,149.67037181669767L1120.4594213540638,185.74766634510792L1122.2166392361235,152.22793394864536L1123.973857118183,160.04636338793554L1125.7310750002428,202.44719599734455L1127.4882928823024,159.24185030621453L1129.2455107643623,152.59776125230317L1131.0027286464217,152.52216623574225L1132.7599465284814,177.02122666538077L1134.517164410541,175.32639876466862L1136.2743822926006,192.60878175477941L1138.0316001746603,163.19319184027023L1139.7888180567202,128.76778356313903L1141.5460359387798,94.68008265308124L1143.3032538208392,133.06583352740404L1145.060471702899,138.29217737595525L1146.8176895849585,136.63785231717353L1148.5749074670184,157.97719568233313L1150.332125349078,169.02438266686653L1152.0893432311377,143.37451290364857L1153.8465611131974,170.02002086519624L1155.6037789952568,162.10799801600652L1157.3609968773167,156.98812716523395L1159.1182147593763,158.203052686785L1160.875432641436,155.28792955967702L1162.6326505234956,140.96005926639384L1164.3898684055553,126.6043199025083L1166.147086287615,135.73823901679896L1167.9043041696746,120.82269493247526L1169.6615220517342,169.9984537750632L1171.4187399337939,102.29902629902428L1173.1759578158535,85.21532118418357L1174.9331756979132,101.4626074808144L1176.690393579973,145.56873933029593L1178.4476114620327,119.78153113342199L1180.204829344092,115.16215592785285L1181.9620472261518,133.66792854193918L1183.7192651082114,104.2429347690251L1185.4764829902713,90.75385067942439L1187.233700872331,54.386920547500594L1188.9909187543906,91.14107221165199L1190.7481366364502,126.25946965450227L1192.5053545185096,104.25809852972458L1194.2625724005693,94.19444276952626L1196.0197902826292,79.07740463738793L1197.7770081646888,75.54398087106514L1199.5342260467485,69.45558584566349L1201.2914439288081,79.21904756470394L1203.0486618108675,58.21291787392217L1204.8058796929274,88.33189900898722L1206.563097574987,126.26885340368709L1208.3203154570467,147.8916153153034L1210.0775333391064,155.98489130294033L1211.834751221166,135.23221982980877L1213.591969103226,124.56955320212687L1215.3491869852853,118.2147749601992L1217.106404867345,75.69111673115012L1218.8636227494046,49.00081972294406L1220.6208406314643,73.98950453675673L1222.378058513524,52.87786269944061L1224.1352763955838,17.29199140380072L1225.8924942776434,47.872962402920294L1227.6497121597029,66.68248429626635L1229.4069300417625,72.72580485377055L1231.1641479238222,95.61835905632027L1232.921365805882,85.63310726940247L1234.6785836879417,124.32317779104126L1236.4358015700013,104.03580838592704L1238.193019452061,106.8346044737632L1239.9502373341204,114.20785349747656L1241.7074552161803,131.02277512512944L1243.46467309824,111.5640260061417L1245.2218909802996,136.12667803918515L1246.9791088623592,112.87963905678515L1248.7363267444189,56.61597833495217L1250.4935446264785,58.697628938723405L1252.2507625085382,64.40388987548866L1254.0079803905978,110.1858941309876L1255.7651982726575,103.16205860154844L1257.5224161547171,79.79504549928038L1259.2796340367768,63.556603539610116L1261.0368519188366,29.677491278479614L1262.7940698008963,58.00801414451869L1264.5512876829557,121.52293563828249L1266.3085055650154,138.0465723846211L1268.065723447075,106.25354496339436L1269.822941329135,118.74440999807028L1271.5801592111945,152.20704118321993L1273.3373770932542,172.82259281607185L1275.0945949753138,172.27852641924412L1276.8518128573733,111.45904466233921L1278.609030739433,149.51499128939648L1280.3662486214928,146.28854813283348L1282.1234665035524,78.97258283718L1283.880684385612,86.36656609876508L1285.6379022676717,92.41560097391492L1287.3951201497314,148.29399843493655L1289.152338031791,171.23269481051213L1290.9095559138507,173.01823556050866L1292.6667737959103,172.47416267270796L1294.42399167797,176.2420568309481L1296.1812095600296,201.05758672481997L1297.9384274420895,187.7630264772216L1299.6956453241492,163.1479479693001L1301.4528632062086,151.27722145031476L1303.2100810882682,140.18141762677385L1304.9672989703279,123.58916777656201L1306.7245168523875,93.47921397390007L1308.4817347344474,86.4816194198919L1310.238952616507,68.18523773956402L1311.9961704985667,121.58561602515263L1313.7533883806261,102.75044895081287L1315.5106062626858,90.77444859617846L1317.2678241447456,74.94012045118978L1319.0250420268053,85.07544421943673L1320.782259908865,108.53341407326555L1322.5394777909246,127.15984498088515L1324.2966956729842,121.61916742746637L1326.053913555044,95.23662729241578L1327.8111314371035,54.11593841131953L1329.5683493191632,48.658086692817L1331.3255672012228,39.15766412076238L1333.0827850832825,65.73554703692874L1334.8400029653421,69.82302199587564L1336.597220847402,118.7631915923179L1338.3544387294614,100.18680887311837L1340.111656611521,94.25647317401402L1341.8688744935807,66.7020066398034L1343.6260923756404,99.55736780673162L1345.3833102577003,85.3598310267406L1347.14052813976,68.19670965593747L1348.8977460218196,91.27250453534879L1350.654963903879,128.3323888069043L1352.4121817859386,141.77278056079854L1354.1693996679985,154.77030692113686L1355.9266175500582,150.7917310837288L1357.6838354321178,149.78333170168082L1359.4410533141775,115.06084552872719L1361.198271196237,130.71951293332333L1362.9554890782965,97.72852066215985L1364.7127069603564,126.58959530069836L1366.469924842416,92.36695560649684L1368.2271427244757,90.12801107755266L1369.9843606065353,98.26671850756348L1371.741578488595,116.03280213291364L1373.4987963706549,110.23136804570991L1375.2560142527143,118.09201178489197L1377.013232134774,107.65803417718627L1378.7704500168336,96.25003153209421L1380.5276678988932,101.48206236778572L1382.2848857809531,84.25004335635278L1384.0421036630128,94.48703373344178L1385.7993215450724,110.48185512591007L1387.5565394271318,137.4469137127963L1389.3137573091915,104.4257547283367L1391.0709751912511,143.595477841615L1392.828193073311,132.66880763018543L1394.5854109553707,94.04576370413801L1396.3426288374303,131.27153348454414L1398.09984671949,169.31778368068154L1399.8570646015494,174.91947023901983L1401.6142824836093,131.39854187937658L1403.371500365669,125.49432918012828L1405.1287182477286,102.5746197213468L1406.8859361297882,92.45126785929497L1408.6431540118479,98.6064390017451L1410.4003718939077,129.01725599436224L1412.1575897759672,140.25879281412344L1413.9148076580268,158.7383032866816L1415.6720255400865,115.25740298253973L1417.429243422146,126.69336123647078L1419.1864613042057,104.35140027956113L1420.9436791862656,110.5494337872309L1422.7008970683253,128.32390540225265L1424.4581149503847,136.89177919711557L1426.2153328324443,183.47947849409118L1427.972550714504,182.2362450532547L1429.7297685965639,142.58699219013164L1431.4869864786235,129.94526303829292L1433.2442043606832,156.93870237386653L1435.0014222427428,161.84187269845506L1436.7586401248022,174.2663494805128L1438.5158580068621,122.37264760174388L1440.2730758889218,104.14049747055958L1442.0302937709814,115.07795018393176L1443.787511653041,140.3818857127314L1445.5447295351007,180.90880535822103L1447.3019474171604,144.46624418034335L1449.05916529922,162.4333144698172L1450.8163831812797,104.42385765491956L1452.5736010633393,96.68410169976116L1454.330818945399,133.08481826388248L1456.0880368274586,116.07300302357987L1457.8452547095185,100.57410285808191L1459.6024725915781,90.28756538689757L1461.3596904736376,90.76439678816203L1463.1169083556972,92.72955120018881L1464.8741262377569,134.24826473168798L1466.6313441198167,156.5737538675428L1468.3885620018764,185.9496182922602L1470.145779883936,149.8463367990983L1471.9029977659957,167.42321429938906L1473.660215648055,175.41214963963986L1475.4174335301147,198.809080797348L1477.1746514121746,131.8861135607649L1478.9318692942343,147.94090419526304L1480.689087176294,145.0407724122842" style="fill: none;" fill="none"></path></g></g></g></g><g opacity="0.2"><g><g><g><path stroke="rgb(255, 112, 67)" stroke-width="2px" d="M582.750749443808,460.22919967406875L584.5079673258676,373.83179605745477L586.2651852079273,449.570592501787L591.5368388541062,421.4758025768412L593.294056736166,375.3818802979338L595.0512746182255,348.63119808887683L596.8084925002853,367.672525025362L598.565710382345,464.48776396454315L600.3229282644046,234.3771089242659L602.0801461464642,217.43704678332836L603.8373640285239,308.2796604788267L605.5945819105835,275.92764088835435L607.3517997926432,204.38878653322084L609.1090176747028,293.95921653532486L610.8662355567626,100.25457367300396L612.6234534388223,132.54907110593277L614.3806713208818,291.5874440552538L616.1378892029416,207.34288911042134L617.8951070850012,140.57553042272878L619.6523249670607,194.97670573384607L621.4095428491205,284.0724286572599L623.1667607311801,148.07394031404672L624.9239786132399,196.38632558566206L626.6811964952994,268.9230884331688L628.4384143773591,180.003173468278L630.1956322594189,161.1655625464844L631.9528501414784,113.24241148871694L633.710068023538,181.1539293941044L635.4672859055978,183.7257925428034L637.2245037876575,113.99110942756043L638.9817216697171,204.06523505982068L640.7389395517768,226.49984326077256L642.4961574338364,100.49674679005724L644.253375315896,83.16381087216473L646.0105931979557,97.54537388518708L647.7678110800153,113.91820442907215L649.5250289620751,243.76422459545321L651.2822468441346,314.36951679658273L653.0394647261944,213.95586153960016L654.7966826082541,136.7979766925562L656.5539004903136,46.371609593340935L658.3111183723734,169.26850955670218L660.068336254433,125.95759484635502L661.8255541364927,201.23911430718948L663.5827720185523,162.60995728642484L665.339989900612,135.0902538750027L667.0972077826717,185.8585480894531L668.8544256647313,173.65170933515876L670.6116435467909,202.01530800794333L672.3688614288507,188.91438782913062L674.1260793109103,217.9683661287854L675.8832971929698,219.71683499268588L677.6405150750296,237.98707214699314L679.3977329570893,142.3653424487985L681.1549508391489,117.72245776672538L682.9121687212086,104.64073059648503L684.6693866032682,55.98668133819456L686.426604485328,160.3071374667805L688.1838223673875,199.55740867903415L689.9410402494472,178.67200326187123L691.6982581315069,16.3141923714353L693.4554760135665,303.2811044114528L695.2126938956262,136.13318774378249L696.9699117776859,156.29127765535586L698.7271296597455,104.46881810785005L700.4843475418052,38.50367031030942L702.2415654238648,187.92027528734158L703.9987833059245,12.462539411129955L705.7560011879841,142.96242983696357L707.5132190700438,-10.445524768694137L709.2704369521035,131.13976402907133L711.0276548341632,92.36692956783813L712.7848727162227,166.6012500468768L714.5420905982825,101.8604171576466L716.2993084803421,73.43056706267882L718.0565263624017,86.65463527130932L719.8137442444614,114.73622467147041L721.5709621265211,240.38727871383813L723.3281800085807,186.69234925001084L725.0853978906404,233.798617428851L726.8426157727,168.70056710748037L728.5998336547598,282.7426801551918L730.3570515368193,229.34794356248L732.114269418879,160.48061383018802L733.8714873009387,151.90330095032132L735.6287051829983,122.98048909295446L737.385923065058,-2.149567177455138L739.1431409471177,80.35540455559368L740.9003588291773,103.41729714486455L742.657576711237,103.5025141029259L744.4147945932966,86.46944406415095L746.1720124753563,177.2532560682009L747.9292303574159,186.2634494851134L749.6864482394756,101.48281248528922L751.4436661215353,65.83024940436323L753.200884003595,140.7104785985577L754.9581018856545,-13.488995680624939L756.7153197677143,3.6380490149377613L758.4725376497739,98.2606617720712L760.2297555318335,-29.00752408738832L761.9869734138932,73.64879867866846L763.7441912959529,149.54793493831878L765.5014091780126,19.06265963308694L767.2586270600722,114.14968632949848L769.0158449421318,138.8825933302977L770.7730628241916,238.30119772062775L772.5302807062511,217.50272952377603L774.2874985883108,156.2217278791069L776.0447164703705,80.81799871331825L777.8019343524302,97.92525328448633L779.5591522344898,45.59356767694678L781.3163701165495,27.256595720981213L783.0735879986091,78.6717654095377L784.8308058806688,216.62016390440107L786.5880237627284,208.53828655248276L788.3452416447881,163.50935588516998L790.1024595268478,33.44777690695601L791.8596774089074,-47.27494626710499L793.6168952909671,141.38880217263576L795.3741131730268,159.51593056821002L797.1313310550863,110.79770557607081L798.8885489371461,52.90169665957383L800.6457668192057,79.88621368973762L802.4029847012654,109.67615145736121L804.160202583325,243.1368122537438L805.9174204653847,173.25812470603447L807.6746383474444,33.24580958860101L809.431856229504,42.10368160266577L811.1890741115636,32.744004825215285L812.9462919936234,217.15742597399384L814.703509875683,-7.781478310674112L816.4607277577426,37.48376805181649L818.2179456398023,121.63467533185911L819.975163521862,135.66820512276897L821.7323814039216,23.428201843656907L823.4895992859813,188.86118765277664L825.2468171680409,115.74378653630343L827.0040350501007,98.28178829854421L828.7612529321602,151.88234502836895L830.5184708142199,146.87979397180334L832.2756886962796,71.46585696886285L834.0329065783392,134.66800768641033L835.7901244603989,60.960912044333334L837.5473423424586,95.92801459540104L839.3045602245182,138.11220018324573L841.0617781065779,16.883471222735476L842.8189959886375,-42.68346680302962L844.5762138706972,100.51818609148476L846.3334317527568,124.03186788550609L848.0906496348165,155.5832973287726L849.8478675168762,134.0390741210585L851.6050853989359,68.72114300666532L853.3623032809954,112.81911323891394L855.1195211630552,201.356888294607L856.8767390451148,98.12517334859358L858.6339569271744,107.31706057999129L860.3911748092341,141.72051422894006L862.1483926912938,131.41719541372422L863.9056105733534,163.47856176919387L865.6628284554131,156.15718250213018L867.4200463374727,136.83386051006482L869.1772642195325,100.48850090489285L870.934482101592,231.6905995376946L872.6916999836517,186.57178872208954L874.4489178657115,121.59916115747855L876.206135747771,148.4920351259701L877.9633536298307,93.29476225335718L879.7205715118904,97.20026937401227L881.47778939395,-4.693422750681802L883.2350072760097,121.00124918079703L884.9922251580693,84.94725366279711L886.749443040129,38.259904884396775L888.5066609221886,138.40373487493846L890.2638788042483,136.5213130282462L892.021096686308,26.477814518330913L893.7783145683677,60.603182798630954L895.5355324504272,191.34826035471585L897.292750332487,81.18169911724316L899.0499682145467,66.89237628171536L900.8071860966063,107.18728740795525L902.5644039786661,82.52611960808657L904.3216218607257,76.50935311038285L906.0788397427854,123.76927909414911L907.836057624845,151.00609177625776L909.5932755069047,18.885486838398798L911.3504933889644,38.209576550807L913.107711271024,73.78479891570802L914.8649291530836,62.876288997596575L916.6221470351434,249.2722199785116L918.379364917203,16.819352357060325L920.1365827992626,-4.493929197876194L921.8938006813223,188.86357611606564L923.651018563382,189.94805218562203L925.4082364454416,91.88201465199612L927.1654543275013,161.41680613721857L928.9226722095609,-20.84802167857724L930.6798900916207,76.61029411843016L932.4371079736802,105.81872637744081L934.1943258557399,154.42142367501762L935.9515437377996,36.81710245331569L937.7087616198592,118.31107179703186L939.4659795019189,97.95573462550794L941.2231973839786,210.24379151126786L942.9804152660382,221.78598348722235L944.7376331480979,212.42963349792444L946.4948510301575,37.52499747763866L948.2520689122172,15.851086400148809L950.0092867942768,173.66237211769896L951.7665046763365,176.081430484075L953.5237225583962,77.91348518345141L955.2809404404559,21.954519994339357L957.0381583225154,19.728330038550663L958.7953762045752,125.93746351291911L960.5525940866348,93.70341694847166L962.3098119686944,178.79199510805708L964.0670298507541,6.745923133411477L965.8242477328138,136.22849880264857L967.5814656148735,141.45525263342637L969.3386834969331,174.98111662818556L971.0959013789927,75.7367421045625L972.8531192610525,80.85155093571144L974.610337143112,180.5298580575909L976.3675550251717,95.40292231494747L978.1247729072314,179.28225563221264L979.8819907892911,91.35279942896035L981.6392086713507,116.12613970115204L983.3964265534104,145.86836507116905L985.15364443547,154.79811845659822L986.9108623175297,109.24730856063732L988.6680801995893,145.26010308690186L990.425298081649,102.40086384495805L992.1825159637087,119.55318644366274L993.9397338457683,66.93846793637584L995.696951727828,73.78673243360865L997.4541696098877,189.92524804802937L999.2113874919472,87.05427636091645L1000.968605374007,150.05448819419573L1002.7258232560666,122.2257631277149L1004.4830411381262,141.57706426116576L1006.2402590201859,29.276354206791442L1007.9974769022456,82.46555500325815L1009.7546947843053,135.1691015976267L1011.5119126663649,172.33376097910184L1013.2691305484245,217.26351355174725L1015.0263484304843,38.92745193958757L1016.7835663125438,61.0729423462225L1018.5407841946035,127.7559655325437L1020.2980020766632,74.22677836052148L1022.0552199587229,84.59740065913108L1023.8124378407825,11.347894775506422L1025.569655722842,-4.442008555426982L1027.326873604902,115.02719068142771L1029.0840914869616,-40.473285238094554L1030.8413093690212,137.00881544598465L1032.5985272510807,165.8652621448212L1034.3557451331403,40.91641630942167L1036.1129630152002,200.81487773252292L1037.8701808972598,54.49494384377559L1039.6273987793195,92.36448423637557L1041.3846166613791,143.15148807992318L1043.1418345434388,192.68506051030386L1044.8990524254984,39.33485553488395L1046.656270307558,147.56315037924043L1048.4134881896177,56.79941284045287L1050.1707060716774,128.21776353583854L1051.927923953737,75.90848398867685L1053.6851418357967,142.19843435943574L1055.4423597178566,125.69079781015556L1057.199577599916,8.075899108173742L1058.9567954819756,72.65329286662754L1060.7140133640353,111.04275053588826L1062.471231246095,108.39203966456526L1064.2284491281548,48.50891459387446L1065.9856670102145,75.35356435119745L1067.742884892274,88.00272375934655L1069.5001027743335,202.6458623162413L1071.2573206563932,58.9577306311123L1073.014538538453,82.13364390834644L1074.7717564205127,227.65887350585018L1076.5289743025724,95.94743507666759L1078.286192184632,244.1896980528944L1080.0434100666916,207.03705207308133L1081.800627948751,119.0324730125724L1083.557845830811,254.6443572949643L1085.3150637128706,80.76277971680332L1087.0722815949302,59.53898023294428L1088.82949947699,166.69562278087935L1090.5867173590495,188.62757319584227L1092.3439352411094,42.33425361231527L1094.1011531231688,209.16739072235524L1095.8583710052285,220.65564323569964L1097.6155888872881,225.22102020811653L1099.3728067693478,90.93547233737982L1101.1300246514077,18.090782547155158L1102.8872425334673,220.39345252155752L1104.644460415527,185.71324990603847L1106.4016782975864,82.772927481284L1108.158896179646,7.337266836048229L1109.9161140617057,158.65133529167613L1111.6733319437656,49.55105230822455L1113.4305498258252,137.55944153636116L1115.1877677078849,301.98965662426923L1116.9449855899445,106.6924489958291L1118.702203472004,143.46099311445704L1120.4594213540638,239.86360813772325L1122.2166392361235,101.94833535395148L1123.973857118183,171.77400754687093L1125.7310750002428,266.048444911458L1127.4882928823024,94.4338317695195L1129.2455107643623,142.63162767143604L1131.0027286464217,152.4087737109009L1132.7599465284814,213.76981730983854L1134.517164410541,172.78415691360038L1136.2743822926006,218.53235623994564L1138.0316001746603,119.0698069685065L1139.7888180567202,77.12967114744217L1141.5460359387798,43.54853128799456L1143.3032538208392,190.64445983888834L1145.060471702899,146.13169314878212L1146.8176895849585,134.1563647290008L1148.5749074670184,189.98621073007263L1150.332125349078,185.5951631436665L1152.0893432311377,104.89970825882169L1153.8465611131974,209.9882828075176L1155.6037789952568,150.23996374222187L1157.3609968773167,149.30832088907513L1159.1182147593763,160.02544096911146L1160.875432641436,150.91524486901514L1162.6326505234956,119.46825382646915L1164.3898684055553,105.07071085667988L1166.147086287615,149.4391176882351L1167.9043041696746,98.44937880598955L1169.6615220517342,243.76209203894518L1171.4187399337939,0.7498850849659509L1173.1759578158535,59.58976351192249L1174.9331756979132,125.83353692576051L1176.690393579973,211.72793710451822L1178.4476114620327,81.10071883811109L1180.204829344092,108.23309311949916L1181.9620472261518,161.42658746306878L1183.7192651082114,60.10544410965389L1185.4764829902713,70.52022454502335L1187.233700872331,-0.1634746503851945L1188.9909187543906,146.27229970787903L1190.7481366364502,178.9370658187775L1192.5053545185096,71.25604184255825L1194.2625724005693,79.09895912922873L1196.0197902826292,56.4018474391802L1197.7770081646888,70.24384522158104L1199.5342260467485,60.32299330756096L1201.2914439288081,93.86424014326478L1203.0486618108675,26.70372333774952L1204.8058796929274,133.51037071158467L1206.563097574987,183.17428499573688L1208.3203154570467,180.32575818272787L1210.0775333391064,168.1248052843957L1211.834751221166,104.10321262011128L1213.591969103226,108.57555326060398L1215.3491869852853,108.68260759730771L1217.106404867345,11.905629387576392L1218.8636227494046,8.96537421063482L1220.6208406314643,111.47253175747572L1222.378058513524,21.210399943466502L1224.1352763955838,-36.086815539659014L1225.8924942776434,93.7444189015996L1227.6497121597029,94.89676713628532L1229.4069300417625,81.79078569002681L1231.1641479238222,129.95719036014495L1232.921365805882,70.6552295890258L1234.6785836879417,182.3582835734996L1236.4358015700013,73.60475427825568L1238.193019452061,111.0327986055174L1239.9502373341204,125.26772703304673L1241.7074552161803,156.24515756660864L1243.46467309824,82.37590232766007L1245.2218909802996,172.97065608875036L1246.9791088623592,78.00908058318527L1248.7363267444189,-27.77951274779728L1250.4935446264785,61.82010484438018L1252.2507625085382,72.96328128063658L1254.0079803905978,178.85890051423604L1255.7651982726575,92.62630530738964L1257.5224161547171,44.744525845878215L1259.2796340367768,39.19894060010476L1261.0368519188366,-21.14117711321612L1262.7940698008963,100.5037984435772L1264.5512876829557,216.7953178789283L1266.3085055650154,162.83202750412897L1268.065723447075,58.564003831554125L1269.822941329135,137.48070755008422L1271.5801592111945,202.4009879609445L1273.3373770932542,203.7459202653498L1275.0945949753138,171.46242682400253L1276.8518128573733,20.22982202698188L1278.609030739433,206.59891122998232L1280.3662486214928,141.448883397989L1282.1234665035524,-22.00136510630009L1283.880684385612,97.4575409911425L1285.6379022676717,101.4891532866398L1287.3951201497314,232.11159462646893L1289.152338031791,205.64073937387556L1290.9095559138507,175.69654668550356L1292.6667737959103,171.65805334100693L1294.42399167797,181.89389806830832L1296.1812095600296,238.28088156562782L1297.9384274420895,167.82118610582404L1299.6956453241492,126.22533020741803L1301.4528632062086,133.4711316718367L1303.2100810882682,123.5377118914625L1304.9672989703279,98.70079300124438L1306.7245168523875,48.31428326990712L1308.4817347344474,75.98522758887958L1310.238952616507,40.740665219072206L1311.9961704985667,201.68618345353545L1313.7533883806261,74.49769833930316L1315.5106062626858,72.81044806422689L1317.2678241447456,51.18862823370685L1319.0250420268053,100.27842987180728L1320.782259908865,143.72036885400857L1322.5394777909246,155.09949134231476L1324.2966956729842,113.3081510973382L1326.053913555044,55.66281708983984L1327.8111314371035,-7.5650949103247545L1329.5683493191632,40.47130911506309L1331.3255672012228,24.907030262680536L1333.0827850832825,105.6023714111782L1334.8400029653421,75.95423443429603L1336.597220847402,192.1734459869811L1338.3544387294614,72.32223479431909L1340.111656611521,85.36096962535733L1341.8688744935807,25.37030683848762L1343.6260923756404,148.84040955712388L1345.3833102577003,64.06352585675388L1347.14052813976,42.45202759973279L1348.8977460218196,125.88619685446575L1350.654963903879,183.92221521423747L1352.4121817859386,161.93336819163994L1354.1693996679985,174.26659646164427L1355.9266175500582,144.82386732761674L1357.6838354321178,148.27073262860884L1359.4410533141775,62.977116269296836L1361.198271196237,154.20751404021763L1362.9554890782965,48.24203225541465L1364.7127069603564,169.88120725850612L1366.469924842416,41.03299606519464L1368.2271427244757,86.76959428413619L1369.9843606065353,110.47477965257967L1371.741578488595,142.68192757093908L1373.4987963706549,101.52921691490421L1375.2560142527143,129.88297739366507L1377.013232134774,92.00706776562771L1378.7704500168336,79.13802756445607L1380.5276678988932,109.33010862132292L1382.2848857809531,58.40201483920325L1384.0421036630128,109.8425192990753L1385.7993215450724,134.47408721461238L1387.5565394271318,177.89450159312582L1389.3137573091915,54.89401625164722L1391.0709751912511,202.35006251153243L1392.828193073311,116.2788023130411L1394.5854109553707,36.11119781506692L1396.3426288374303,187.11018815515325L1398.09984671949,226.38715897488763L1399.8570646015494,183.32200007652727L1401.6142824836093,66.11714933991182L1403.371500365669,116.63801013125574L1405.1287182477286,68.19505553317467L1406.8859361297882,77.26624006621721L1408.6431540118479,107.8391957154204L1410.4003718939077,174.63348148328785L1412.1575897759672,157.1210980437653L1413.9148076580268,186.45756899551878L1415.6720255400865,50.036052526326905L1417.429243422146,143.84729861736722L1419.1864613042057,70.8384588441968L1420.9436791862656,119.8464840487355L1422.7008970683253,154.9856128247853L1424.4581149503847,149.74358988940995L1426.2153328324443,253.36102743955462L1427.972550714504,180.37139489199996L1429.7297685965639,83.1131128954469L1431.4869864786235,110.98266931053502L1433.2442043606832,197.42886137722695L1435.0014222427428,169.19662818533777L1436.7586401248022,192.9030646535993L1438.5158580068621,44.53209478359043L1440.2730758889218,76.79227227378313L1442.0302937709814,131.48412925398998L1443.787511653041,178.33778900593086L1445.5447295351007,241.69918482645556L1447.3019474171604,89.80240241352682L1449.05916529922,189.38391990402795L1450.8163831812797,17.409672432573203L1452.5736010633393,85.07446776702353L1454.330818945399,187.68589311006434L1456.0880368274586,90.55528016312606L1457.8452547095185,77.32575260983496L1459.6024725915781,74.85775918012104L1461.3596904736376,91.47964389005868L1463.1169083556972,95.67728281822878L1464.8741262377569,196.5263350289367L1466.6313441198167,190.06198757132506L1468.3885620018764,230.01341492933628L1470.145779883936,95.69141455935542L1471.9029977659957,193.78853054982523L1473.660215648055,187.3955526500161L1475.4174335301147,233.9044775339102L1477.1746514121746,31.50166270589014L1478.9318692942343,172.02309014701024L1480.689087176294,140.69057473781595" style="fill: none;" fill="none"></path></g></g></g></g></g></g><g transform="translate(30, 377)" clip-path="url(#clip_1)"><clipPath id="clip_1"><rect width="2051" height="23"></rect></clipPath><g><g><line x1="45.042077533552316" y1="0" x2="45.042077533552316" y2="5" style="visibility: inherit;" fill="rgb(0, 0, 0)" stroke="rgb(204, 204, 204)" stroke-width="1px"></line><line x1="220.76386573951822" y1="0" x2="220.76386573951822" y2="5" style="visibility: inherit;" fill="rgb(0, 0, 0)" stroke="rgb(204, 204, 204)" stroke-width="1px"></line><line x1="396.48565394548416" y1="0" x2="396.48565394548416" y2="5" style="visibility: inherit;" fill="rgb(0, 0, 0)" stroke="rgb(204, 204, 204)" stroke-width="1px"></line><line x1="572.20744215145" y1="0" x2="572.20744215145" y2="5" style="visibility: inherit;" fill="rgb(0, 0, 0)" stroke="rgb(204, 204, 204)" stroke-width="1px"></line><line x1="747.9292303574159" y1="0" x2="747.9292303574159" y2="5" style="visibility: inherit;" fill="rgb(0, 0, 0)" stroke="rgb(204, 204, 204)" stroke-width="1px"></line><line x1="923.651018563382" y1="0" x2="923.651018563382" y2="5" style="visibility: inherit;" fill="rgb(0, 0, 0)" stroke="rgb(204, 204, 204)" stroke-width="1px"></line><line x1="1099.3728067693478" y1="0" x2="1099.3728067693478" y2="5" style="visibility: inherit;" fill="rgb(0, 0, 0)" stroke="rgb(204, 204, 204)" stroke-width="1px"></line><line x1="1275.0945949753138" y1="0" x2="1275.0945949753138" y2="5" style="visibility: inherit;" fill="rgb(0, 0, 0)" stroke="rgb(204, 204, 204)" stroke-width="1px"></line><line x1="1450.8163831812797" y1="0" x2="1450.8163831812797" y2="5" style="visibility: inherit;" fill="rgb(0, 0, 0)" stroke="rgb(204, 204, 204)" stroke-width="1px"></line><line x1="1626.5381713872457" y1="0" x2="1626.5381713872457" y2="5" style="visibility: inherit;" fill="rgb(0, 0, 0)" stroke="rgb(204, 204, 204)" stroke-width="1px"></line><line x1="1802.2599595932113" y1="0" x2="1802.2599595932113" y2="5" style="visibility: inherit;" fill="rgb(0, 0, 0)" stroke="rgb(204, 204, 204)" stroke-width="1px"></line><line x1="1977.9817477991774" y1="0" x2="1977.9817477991774" y2="5" style="visibility: inherit;" fill="rgb(0, 0, 0)" stroke="rgb(204, 204, 204)" stroke-width="1px"></line></g><g transform="translate(0, 8)"><text x="45.042077533552316" y="0" dx="0em" dy="0.95em" style="text-anchor: middle; visibility: inherit; font-family: Roboto, sans-serif; font-size: 12px; font-weight: 200;" fill="rgb(33, 33, 33)" stroke="none" stroke-width="1px">-300</text><text x="220.76386573951822" y="0" dx="0em" dy="0.95em" style="text-anchor: middle; visibility: inherit; font-family: Roboto, sans-serif; font-size: 12px; font-weight: 200;" fill="rgb(33, 33, 33)" stroke="none" stroke-width="1px">-200</text><text x="396.48565394548416" y="0" dx="0em" dy="0.95em" style="text-anchor: middle; visibility: inherit; font-family: Roboto, sans-serif; font-size: 12px; font-weight: 200;" fill="rgb(33, 33, 33)" stroke="none" stroke-width="1px">-100</text><text x="572.20744215145" y="0" dx="0em" dy="0.95em" style="text-anchor: middle; visibility: inherit; font-family: Roboto, sans-serif; font-size: 12px; font-weight: 200;" fill="rgb(33, 33, 33)" stroke="none" stroke-width="1px">0</text><text x="747.9292303574159" y="0" dx="0em" dy="0.95em" style="text-anchor: middle; visibility: inherit; font-family: Roboto, sans-serif; font-size: 12px; font-weight: 200;" fill="rgb(33, 33, 33)" stroke="none" stroke-width="1px">100</text><text x="923.651018563382" y="0" dx="0em" dy="0.95em" style="text-anchor: middle; visibility: inherit; font-family: Roboto, sans-serif; font-size: 12px; font-weight: 200;" fill="rgb(33, 33, 33)" stroke="none" stroke-width="1px">200</text><text x="1099.3728067693478" y="0" dx="0em" dy="0.95em" style="text-anchor: middle; visibility: inherit; font-family: Roboto, sans-serif; font-size: 12px; font-weight: 200;" fill="rgb(33, 33, 33)" stroke="none" stroke-width="1px">300</text><text x="1275.0945949753138" y="0" dx="0em" dy="0.95em" style="text-anchor: middle; visibility: inherit; font-family: Roboto, sans-serif; font-size: 12px; font-weight: 200;" fill="rgb(33, 33, 33)" stroke="none" stroke-width="1px">400</text><text x="1450.8163831812797" y="0" dx="0em" dy="0.95em" style="text-anchor: middle; visibility: inherit; font-family: Roboto, sans-serif; font-size: 12px; font-weight: 200;" fill="rgb(33, 33, 33)" stroke="none" stroke-width="1px">500</text><text x="1626.5381713872457" y="0" dx="0em" dy="0.95em" style="text-anchor: middle; visibility: inherit; font-family: Roboto, sans-serif; font-size: 12px; font-weight: 200;" fill="rgb(33, 33, 33)" stroke="none" stroke-width="1px">600</text><text x="1802.2599595932113" y="0" dx="0em" dy="0.95em" style="text-anchor: middle; visibility: inherit; font-family: Roboto, sans-serif; font-size: 12px; font-weight: 200;" fill="rgb(33, 33, 33)" stroke="none" stroke-width="1px">700</text><text x="1977.9817477991774" y="0" dx="0em" dy="0.95em" style="text-anchor: middle; visibility: inherit; font-family: Roboto, sans-serif; font-size: 12px; font-weight: 200;" fill="rgb(33, 33, 33)" stroke="none" stroke-width="1px">800</text></g><line x1="0" y1="0" x2="2051" y2="0" fill="rgb(0, 0, 0)" stroke="rgb(204, 204, 204)" stroke-width="1px"></line></g></g></g></g></svg>